<?xml version="1.0" encoding="utf-8"?>
<!-- Generator: Adobe Illustrator 16.0.4, SVG Export Plug-In . SVG Version: 6.00 Build 0)  -->
<!DOCTYPE svg PUBLIC "-//W3C//DTD SVG 1.1//EN" "http://www.w3.org/Graphics/SVG/1.1/DTD/svg11.dtd">
<svg version="1.1" id="Layer_1" xmlns="http://www.w3.org/2000/svg" xmlns:xlink="http://www.w3.org/1999/xlink" x="0px" y="0px"
	 width="61.691px" height="103.395px" viewBox="0 0 61.691 103.395"
	 xml:space="preserve">
<path fill="#FFF" d="M178.586-106.584"/>
<path fill="#FFF" d="M23.19,7.26c3.81,2.285,6.741,4.163,8.853,5.569c1.936-1.173,5.569-3.399,9.557-5.745l9.498-5.629
	c0.645-0.351,1.229-0.058,1.229,0.704v5.335c0,0.996-0.176,1.465-0.997,1.936l-6.976,4.045c-2.287,1.349-5.042,2.873-6.86,3.752
	c1.644,0.819,4.633,2.403,6.86,3.635l6.976,3.869c0.763,0.411,0.997,0.88,0.997,1.935v5.101c0,0.762-0.527,0.996-1.173,0.587
	l-12.546-7.504c-2.286-1.408-4.808-2.933-6.801-4.223c-1.699,1.056-4.748,2.99-8.031,4.925l-12.37,7.328
	c-0.703,0.41-1.29,0.117-1.29-0.645v-5.453c0-1.055,0.293-1.523,1.056-1.993l8.854-5.042c1.993-1.171,4.631-2.637,6.332-3.575
	L20.2,12.829l-9.028-4.982c-0.763-0.411-1.056-0.938-1.056-1.993V0.869c0-0.82,0.528-1.114,1.29-0.645L23.19,7.26z"/>
<path fill="#FFF" d="M10.116,41.667c0-0.821,0.353-1.173,1.114-1.173h39.982c0.763,0,1.113,0.352,1.113,1.173v9.614
	c0,7.621-1.583,12.664-5.218,16.122c-3.342,3.224-8.677,5.276-15.712,5.276c-7.095,0-12.956-1.935-16.884-6.098
	c-3.343-3.517-4.397-8.5-4.397-15.008L10.116,41.667L10.116,41.667z M46.348,47.94H16.097v3.576c0,3.634,0.702,7.211,2.931,9.613
	c2.463,2.64,6.801,3.929,12.253,3.929c4.983,0,8.794-1.056,11.08-2.932c2.638-2.169,3.987-5.451,3.987-10.435V47.94z"/>
<path fill="#FFF" d="M31.525,25.613h-0.607c-0.526,0-0.961,0.433-0.961,0.961v18.692c0,0.528,0.435,0.961,0.961,0.961h0.607
	c0.529,0,0.961-0.433,0.961-0.961V26.574C32.486,26.046,32.055,25.613,31.525,25.613"/>
<path fill="#FFF" d="M15.217,49.105c0,0,3.271,1.817,7.206-0.151c3.937-1.968,6.604,0.438,6.604,0.438s1.396,2.749,6.162,0.194
	c3.782-2.026,5.332-1.66,7.446,0.062c1.053,0.855,3.428,1.207,5.713-0.848c0,0-2.202-6.203-3.631-6.774
	C43.29,41.455,16.09,42.35,16.09,42.35l-3.103,0.986L15.217,49.105z"/>
<path fill="#FFF" d="M60.198,79.269H1.494C0.672,79.269,0,79.94,0,80.763V101.9c0,0.822,0.672,1.494,1.494,1.494h58.704
	c0.82,0,1.493-0.672,1.493-1.494V80.763C61.691,79.94,61.019,79.269,60.198,79.269 M18.671,86.896L18.2,87.714
	c-0.111,0.189-0.269,0.268-0.457,0.157c-0.677-0.409-1.259-0.612-1.998-0.612c-1.793,0-2.989,1.398-2.989,4.184
	c0,2.344,0.834,4.075,2.974,4.075c0.691,0,1.433-0.189,2.062-0.504c0.22-0.11,0.347-0.095,0.425,0.095l0.408,0.865
	c0.095,0.205,0.048,0.346-0.125,0.456c-0.787,0.472-1.998,0.786-3.084,0.786c-3.099,0-4.719-2.233-4.719-5.694
	c0-3.383,1.62-5.947,4.892-5.947c1.212,0,2.188,0.299,2.958,0.865C18.733,86.582,18.765,86.708,18.671,86.896 M25.248,97.217
	c-2.769,0-4.704-1.746-4.704-5.664c0-3.635,1.794-5.979,5.034-5.979c2.771,0,4.705,1.747,4.705,5.664
	C30.283,94.873,28.49,97.217,25.248,97.217 M41.438,96.76c0,0.203-0.095,0.298-0.314,0.298h-1.085c-0.314,0-0.424-0.078-0.55-0.283
	l-3.084-4.829c-0.959-1.511-1.448-2.312-1.811-3.053c0.063,0.882,0.078,2.455,0.078,3.556v4.312c0,0.203-0.094,0.298-0.313,0.298
	h-1.229c-0.219,0-0.313-0.095-0.313-0.298V86.031c0-0.205,0.096-0.3,0.313-0.3h1.086c0.315,0,0.426,0.079,0.567,0.283l3.051,4.831
	c0.945,1.493,1.385,2.17,1.811,3.051c-0.048-0.896-0.063-2.423-0.063-3.539v-4.326c0-0.205,0.095-0.3,0.315-0.3h1.227
	c0.221,0,0.314,0.095,0.314,0.3V96.76z M51.099,87.054c0,0.205-0.096,0.299-0.313,0.299h-4.248v3.178h3.57
	c0.221,0,0.313,0.094,0.313,0.283v1.021c0,0.205-0.094,0.301-0.313,0.301h-3.57v4.625c0,0.203-0.094,0.298-0.314,0.298h-1.368
	c-0.222,0-0.315-0.095-0.315-0.298v-10.73c0-0.205,0.095-0.3,0.315-0.3h5.932c0.219,0,0.313,0.095,0.313,0.3L51.099,87.054
	L51.099,87.054z"/>
<path fill="#FFF" d="M25.531,87.259c-1.872,0-2.926,1.51-2.926,4.231c0,2.784,0.991,4.043,2.689,4.043c1.872,0,2.927-1.51,2.927-4.231
	C28.222,88.516,27.23,87.259,25.531,87.259"/>
</svg>
